<?xml version="1.0" encoding="UTF-8" standalone="no"?>
<svg
   width="48"
   height="48"
   viewBox="0 0 12.7 12.7"
   version="1.1"
   id="svg4"
   sodipodi:docname="xpdf.svg"
   inkscape:version="1.4.4 (dcaf3e7d9e, 2026-05-05)"
   xmlns:inkscape="http://www.inkscape.org/namespaces/inkscape"
   xmlns:sodipodi="http://sodipodi.sourceforge.net/DTD/sodipodi-0.dtd"
   xmlns="http://www.w3.org/2000/svg"
   xmlns:svg="http://www.w3.org/2000/svg">
  <sodipodi:namedview
     id="namedview1"
     pagecolor="#505050"
     bordercolor="#eeeeee"
     borderopacity="1"
     inkscape:showpageshadow="0"
     inkscape:pageopacity="0"
     inkscape:pagecheckerboard="0"
     inkscape:deskcolor="#505050"
     inkscape:zoom="17.604167"
     inkscape:cx="25.420118"
     inkscape:cy="24.96568"
     inkscape:window-width="1920"
     inkscape:window-height="1054"
     inkscape:window-x="0"
     inkscape:window-y="0"
     inkscape:window-maximized="1"
     inkscape:current-layer="svg4" />
  <defs
     id="defs8">
    <style
       id="current-color-scheme"
       type="text/css">
      .ColorScheme-Highlight {
        color:#5DF4FE;
      }
  </style>
  </defs>
  <path
     id="path817"
     style="fill:#5DF4FE"
     class="ColorScheme-Highlight"
     transform="scale(0.26458333)"
     d="M 24,0 A 24,24 0 0 0 0,24 24,24 0 0 0 24,48.000001 24,24 0 0 0 48.000001,24 24,24 0 0 0 24,0 Z m 0,3 A 21,21 0 0 1 45.000001,24 21,21 0 0 1 24,45.000001 21,21 0 0 1 3,24 21,21 0 0 1 24,3 Z" />
  <text
     xml:space="preserve"
     style="font-style:normal;font-variant:normal;font-weight:bold;font-stretch:normal;font-size:4.92179px;font-family:Rajdhani;-inkscape-font-specification:'Rajdhani Bold';text-align:center;letter-spacing:0px;writing-mode:lr-tb;direction:ltr;text-anchor:middle;fill:#5df4fe;fill-opacity:1;stroke-width:0.26458333;stroke-dasharray:none;stroke:#5df4fe;stroke-opacity:1"
     x="6.3119888"
     y="7.9957395"
     id="text30"><tspan
       sodipodi:role="line"
       id="tspan30"
       style="font-style:normal;font-variant:normal;font-weight:bold;font-stretch:normal;font-family:Rajdhani;-inkscape-font-specification:'Rajdhani Bold';letter-spacing:0px;fill:#5df4fe;fill-opacity:1;stroke-width:0.26458333;stroke-dasharray:none;stroke:#5df4fe;stroke-opacity:1"
       x="6.3119888"
       y="7.9957395">PDF</tspan></text>
</svg>
